# xmcd
#
# Track frame offsets:
#	180
#	19253
#	34881
#	49716
#	70037
#	84746
#	100642
#	117214
#	134007
#	152448
#	167210
#	184689
#	202300
#	220543
#	238014
#
# Disc length: 3380 seconds
#
# Revision: 1
# Processed by: cddbd v1.5.1PL0 Copyright (c) Steve Scherf et al.
# Submitted via: audiograbber 1.83.01
#
DISCID=ce0d320f
DTITLE=Sound Choice Karaoke - SC-8157
DYEAR=1900
DGENRE=Karaoke
TTITLE0=Patty Loveless - Don't Toss Us Away
TTITLE1=McBride and the Ride - Can I Count On You
TTITLE2=Billy Dean - Billy The Kid
TTITLE3=K.T. Oslin - 80's Ladies
TTITLE4=Carlene Carter - Come On Back
TTITLE5=Aaron Neville - The Grand Tour
TTITLE6=The Judds - Change Of Heart
TTITLE7=The Kentucky Headhunters - Walk Softly On This Heart Of Mine
TTITLE8=Little Texas - I'd Rather Miss You
TTITLE9=Ricky Van Shelton - Statue Of A Fool
TTITLE10=Radney Foster - Nobody Wins
TTITLE11=Lorrie Morgan - Dear Me
TTITLE12=Diamond Rio - Nowhere Bound
TTITLE13=Shenandoah - Ghost In The House
TTITLE14=Doug Stone - Why Didn't I Think Of That
EXTD=
EXTT0=
EXTT1=
EXTT2=
EXTT3=
EXTT4=
EXTT5=
EXTT6=
EXTT7=
EXTT8=
EXTT9=
EXTT10=
EXTT11=
EXTT12=
EXTT13=
EXTT14=
PLAYORDER=
